<svg width="100" height="100" viewBox="0 0 100 100" fill="none" xmlns="http://www.w3.org/2000/svg">
<mask id="mask0_120_2" style="mask-type:alpha" maskUnits="userSpaceOnUse" x="0" y="0" width="100" height="100">
<path d="M50 0C77.6364 0 100 22.3636 100 50C100 77.6364 77.6364 100 50 100C22.3636 100 0 77.6364 0 50C0 22.3636 22.3636 0 50 0Z" fill="white"/>
</mask>
<g mask="url(#mask0_120_2)">
<g filter="url(#filter0_d_120_2)">
<path d="M50 1.17188C76.9886 1.17188 98.8281 23.0114 98.8281 50C98.8281 76.9886 76.9886 98.8281 50 98.8281C23.0114 98.8281 1.17188 76.9886 1.17188 50C1.17188 23.0114 23.0114 1.17188 50 1.17188Z" fill="black"/>
</g>
<path d="M50 1.17188C76.9886 1.17188 98.8281 23.0114 98.8281 50C98.8281 76.9886 76.9886 98.8281 50 98.8281C23.0114 98.8281 1.17188 76.9886 1.17188 50C1.17188 23.0114 23.0114 1.17188 50 1.17188Z" fill="white"/>
<path d="M50 2.88513C76.0416 2.88513 97.1148 23.9583 97.1148 50C97.1148 76.0416 76.0416 97.1148 50 97.1148C23.9583 97.1148 2.88513 76.0416 2.88513 50C2.88513 23.9583 23.9583 2.88513 50 2.88513Z" fill="#5C5C5E"/>
<path d="M75.0137 70.7306C73.3004 76.0417 70.7305 79.9822 67.1327 82.8948C63.5348 85.8073 58.7376 87.3492 52.7412 87.8632L51.5419 79.9822C55.4824 79.4682 58.395 78.6116 60.2796 77.241C60.9649 76.727 62.3355 75.185 62.3355 75.185L48.1154 29.6121H59.9369L68.1606 63.7062L76.8983 29.6121H88.3772L75.0137 70.7306ZM33.7239 28.0702C36.4652 28.0702 39.0351 28.4128 41.091 29.2695C43.3182 30.1261 45.3742 31.3254 47.4301 33.0387L42.6329 39.5491C41.2623 38.5211 39.8917 37.8358 38.6924 37.3218C37.4931 36.8079 35.9512 36.6365 34.5806 36.6365C28.7555 36.6365 25.8429 41.091 25.8429 50.1713C25.8429 54.7972 26.5282 58.0524 28.0702 59.937C29.6121 61.9929 31.668 62.8495 34.5806 62.8495C35.9512 62.8495 37.3218 62.6782 38.5211 62.1642C39.7204 61.6502 41.091 60.9649 42.8043 59.937L47.6014 66.79C43.6609 70.0452 39.2064 71.5872 34.0666 71.5872C29.9547 71.5872 26.5282 70.7305 23.4443 69.0173C20.5318 67.304 18.1332 64.7341 16.5913 61.4789C15.0493 58.2237 14.1927 54.4545 14.1927 50C14.1927 45.7168 15.0493 41.7763 16.5913 38.5211C18.1332 35.0946 20.5318 32.5247 23.4443 30.6401C26.3569 29.0982 29.7834 28.0702 33.7239 28.0702Z" fill="white"/>
</g>
<defs>
<filter id="filter0_d_120_2" x="-2.82812" y="-2.82812" width="105.656" height="105.656" filterUnits="userSpaceOnUse" color-interpolation-filters="sRGB">
<feFlood flood-opacity="0" result="BackgroundImageFix"/>
<feColorMatrix in="SourceAlpha" type="matrix" values="0 0 0 0 0 0 0 0 0 0 0 0 0 0 0 0 0 0 127 0" result="hardAlpha"/>
<feOffset/>
<feGaussianBlur stdDeviation="2"/>
<feColorMatrix type="matrix" values="0 0 0 0 0 0 0 0 0 0 0 0 0 0 0 0 0 0 0.3 0"/>
<feBlend mode="normal" in2="BackgroundImageFix" result="effect1_dropShadow_120_2"/>
<feBlend mode="normal" in="SourceGraphic" in2="effect1_dropShadow_120_2" result="shape"/>
</filter>
</defs>
</svg>
